<svg width="201" height="144" viewBox="0 0 201 144" fill="none" xmlns="http://www.w3.org/2000/svg">
<g clip-path="url(#clip0_2199_34257)">
<path d="M95.3803 143.994C93.7009 143.587 92.0159 143.208 90.3476 142.761C76.7951 139.129 67.232 130.425 60.1851 118.697C53.8078 108.074 50.7782 96.4352 50.382 84.0878C50.3541 83.2732 50.3541 82.2243 50.8116 81.6831C51.4756 80.9075 52.5971 79.9981 53.4786 80.0371C55.0911 80.1097 55.7997 81.4711 55.9949 83.0947C56.5362 87.6308 56.7928 92.245 57.8083 96.6806C60.9941 110.613 67.6393 122.502 79.8304 130.548C95.7262 141.037 115.6 138.314 128.935 124.081C138.32 114.061 143.09 102.003 144.513 88.4956C144.68 86.9054 144.825 85.3041 144.92 83.7084C145.054 81.4599 146.192 79.9088 147.782 79.92C149.417 79.9311 150.795 81.7166 150.661 83.9539C150.505 86.6934 150.288 89.4385 149.891 92.1501C147.615 107.806 141.472 121.565 129.616 132.378C123.043 138.376 115.388 142.293 106.489 143.581C106.137 143.632 105.808 143.855 105.462 144H95.3747L95.3803 143.994Z" fill="black"/>
<path d="M4.12321 0C4.68116 1.32791 5.67988 2.63908 5.71336 3.97815C5.88074 10.3834 5.79147 16.7886 5.79147 23.5564C11.5048 21.1182 17.0341 20.4264 22.4963 23.3054C26.1007 25.2024 28.9127 27.9586 30.7651 31.6132C34.2076 38.4145 32.6677 47.297 27.0882 52.988C21.9942 58.1825 13.5357 59.2258 6.0816 55.5769C3.57643 58.3555 2.05882 58.3331 0 55.4876V0H4.12321ZM5.78589 39.6978C5.78589 42.1416 5.87516 44.5854 5.75241 47.0236C5.67988 48.5133 6.28246 49.4172 7.43183 50.2429C14.6572 55.443 23.9637 51.7773 26.3573 42.7665C27.808 37.293 26.0895 32.2604 21.7208 29.1917C17.3632 26.1341 11.8173 26.0783 7.56573 28.9852C6.33267 29.8277 5.66872 30.7762 5.75241 32.372C5.88632 34.8046 5.78589 37.254 5.78589 39.6978Z" fill="black"/>
<path d="M200.854 33.0189C198.606 35.1894 197.289 35.0666 195.303 32.5224C192.106 28.4215 187.413 27.0043 182.922 28.7786C178.67 30.458 176.963 32.9185 176.946 37.516C176.924 43.4023 176.946 49.283 176.935 55.1694C176.935 57.5741 175.925 58.9467 174.223 58.9411C172.516 58.9355 171.573 57.602 171.573 55.147V26.0335C171.573 23.1712 172.276 22.0442 174.101 21.9493C175.953 21.8545 176.796 22.8867 177.091 25.3528C179.864 24.6107 182.632 23.4446 185.477 23.188C192.178 22.591 197.172 25.7489 200.854 31.1889V33.0245V33.0189Z" fill="black"/>
<path d="M134.515 40.1104C134.28 45.6508 137.433 50.8007 142.013 52.6809C146.817 54.6505 152.112 53.4118 155.789 49.4504C156.258 48.9483 156.682 48.4071 157.089 47.8491C158.216 46.3148 159.639 45.8517 161.251 46.9341C162.986 48.0946 162.663 49.735 161.692 51.1633C159.092 54.9797 155.471 57.4904 150.996 58.5003C140.63 60.8325 131.078 54.3269 129.175 43.7985C127.752 35.9147 132.065 27.3893 139.106 24.1755C146.895 20.6214 155.744 22.6858 160.944 29.3756C162.15 30.9267 163.176 32.6675 164.03 34.4417C165.508 37.5439 163.935 39.9654 160.509 39.9765C152.564 40.0044 144.619 39.9821 136.674 39.9933C135.999 39.9933 135.324 40.0658 134.52 40.116L134.515 40.1104ZM157.574 34.6593C155.454 29.9837 150.79 27.4284 145.523 27.897C141.355 28.2709 137.226 31.2726 136.345 34.6593H157.574Z" fill="black"/>
<path d="M45.0933 39.9823C44.6246 45.1656 47.5929 50.2987 52.0732 52.43C56.6595 54.6172 62.1999 53.6575 65.8042 50.0085C66.4961 49.3055 67.1042 48.5077 67.7068 47.721C68.8115 46.2759 70.1841 45.93 71.7128 46.8952C73.3644 47.933 73.2639 49.5008 72.3489 50.8957C69.7824 54.8348 66.1334 57.4571 61.5694 58.4893C51.2251 60.8271 41.5894 54.3215 39.6478 43.8656C38.2027 36.099 42.6439 27.289 49.5569 24.2092C57.608 20.6216 66.3175 22.686 71.5343 29.5264C72.7283 31.0886 73.7549 32.8183 74.5974 34.5981C76.009 37.5775 74.43 39.9544 71.0935 39.9711C63.0703 40.0102 55.0526 39.9823 47.0294 39.9823C46.4324 39.9823 45.8298 39.9823 45.0933 39.9823ZM68.0918 34.6874C65.9716 29.9448 61.1454 27.3671 55.7668 27.9139C51.7998 28.3156 47.5929 31.4792 46.8397 34.6874H68.0918Z" fill="black"/>
<path d="M90.3147 26.5751V53.8642C90.3147 54.6286 90.3705 55.3986 90.2868 56.1518C90.1138 57.7419 89.2211 58.6904 87.5807 58.6514C85.9794 58.6067 84.9919 57.6973 84.9305 56.0848C84.8468 53.8754 84.9026 51.6603 84.9026 49.4453V26.6867C83.0837 26.6867 81.4322 26.67 79.7862 26.6867C77.9506 26.709 76.7901 25.8554 76.8068 24.0086C76.8236 22.1729 78.051 21.3137 79.8197 21.2746C81.4099 21.2412 83 21.2746 84.9026 21.2746V11.784C84.9026 9.41832 84.9138 7.05263 84.9026 4.68695C84.8914 2.87362 85.7395 1.76331 87.5528 1.59593C89.1988 1.43971 90.2923 2.71182 90.3091 4.76506C90.337 9.4239 90.3202 14.0772 90.3202 18.736V21.2802C92.0834 21.2802 93.6623 21.2356 95.2357 21.2914C97.2332 21.3583 98.5667 22.5356 98.3825 24.1257C98.1705 25.9725 96.9988 26.6867 95.1855 26.603C93.6735 26.5361 92.1503 26.5863 90.3202 26.5863L90.3147 26.5751Z" fill="black"/>
<path d="M108.387 26.6753C106.439 26.6753 104.782 26.692 103.12 26.6753C101.507 26.653 100.497 25.8663 100.391 24.2147C100.28 22.4405 101.289 21.4585 102.958 21.3302C104.699 21.1963 106.45 21.3023 108.454 21.3023C108.504 20.3649 108.587 19.6396 108.582 18.9087C108.532 14.4061 108.442 9.90345 108.409 5.40083C108.409 4.65319 108.364 3.64331 108.799 3.20811C109.519 2.4772 110.602 1.70166 111.545 1.68492C112.956 1.6626 113.815 2.71154 113.81 4.2961C113.787 9.03305 113.81 13.77 113.81 18.507V21.2744C115.651 21.2744 117.23 21.2465 118.809 21.2744C120.645 21.319 122.023 22.0499 121.911 24.1087C121.811 25.9946 120.544 26.6585 118.748 26.586C117.224 26.5246 115.701 26.5748 113.81 26.5748V54.5669C113.81 57.5352 113.012 58.7348 111.098 58.6734C109.235 58.612 108.398 57.3176 108.392 54.4051C108.381 46.075 108.392 37.7449 108.392 29.4204V26.6697L108.387 26.6753Z" fill="black"/>
</g>
<defs>
<clipPath id="clip0_2199_34257">
<rect width="200.855" height="144" fill="white"/>
</clipPath>
</defs>
</svg>
