<svg width="29" height="28" viewBox="0 0 29 28" fill="none" xmlns="http://www.w3.org/2000/svg">
<path d="M26.0067 14.386L15.5067 2.71935C15.0645 2.22701 14.2152 2.22701 13.773 2.71935L3.27303 14.386C3.12216 14.5537 3.02313 14.7615 2.98793 14.9843C2.95273 15.2071 2.98287 15.4353 3.0747 15.6413C3.26136 16.0625 3.67903 16.3332 4.13986 16.3332H6.4732V24.4998C6.4732 24.8093 6.59611 25.106 6.81491 25.3248C7.0337 25.5436 7.33045 25.6665 7.63986 25.6665H11.1399C11.4493 25.6665 11.746 25.5436 11.9648 25.3248C12.1836 25.106 12.3065 24.8093 12.3065 24.4998V19.8332H16.9732V24.4998C16.9732 24.8093 17.0961 25.106 17.3149 25.3248C17.5337 25.5436 17.8304 25.6665 18.1399 25.6665H21.6399C21.9493 25.6665 22.246 25.5436 22.4648 25.3248C22.6836 25.106 22.8065 24.8093 22.8065 24.4998V16.3332H25.1399C25.3658 16.3341 25.5872 16.2693 25.7769 16.1467C25.9667 16.024 26.1166 15.8488 26.2085 15.6424C26.3004 15.436 26.3303 15.2073 26.2944 14.9842C26.2586 14.7611 26.1586 14.5533 26.0067 14.386Z" fill="black"/>
</svg>
