<svg width="29" height="28" viewBox="0 0 29 28" fill="none" xmlns="http://www.w3.org/2000/svg">
<path d="M14.0602 17.0917C13.4477 17.0922 12.8487 16.9108 12.3394 16.5704C11.8302 16.23 11.4335 15.7459 11.1997 15.1797C10.966 14.6135 10.9057 13.9906 11.0266 13.39C11.1475 12.7895 11.444 12.2384 11.8786 11.8067C11.9605 11.7255 12.0577 11.6612 12.1645 11.6176C12.2713 11.5739 12.3857 11.5517 12.501 11.5523C12.6164 11.5528 12.7305 11.5761 12.8369 11.6207C12.9433 11.6654 13.0399 11.7305 13.1211 11.8125C13.2023 11.8945 13.2665 11.9916 13.3102 12.0984C13.3538 12.2052 13.376 12.3196 13.3755 12.435C13.3749 12.5503 13.3517 12.6645 13.307 12.7709C13.2624 12.8773 13.1972 12.9738 13.1152 13.055C12.9894 13.1781 12.8894 13.3251 12.8213 13.4874C12.7532 13.6497 12.7183 13.824 12.7186 14C12.7031 14.2771 12.7746 14.5521 12.9232 14.7865C13.0718 15.0209 13.29 15.2029 13.5472 15.3071C13.8045 15.4113 14.0878 15.4324 14.3577 15.3674C14.6275 15.3025 14.8702 15.1548 15.0519 14.945C15.218 14.7804 15.4423 14.6881 15.6761 14.6881C15.9099 14.6881 16.1342 14.7804 16.3002 14.945C16.462 15.1125 16.5525 15.3363 16.5525 15.5692C16.5525 15.8021 16.462 16.0258 16.3002 16.1933C16.0054 16.4845 15.6554 16.714 15.2708 16.8683C14.8861 17.0225 14.4746 17.0985 14.0602 17.0917Z" fill="#D5D7DA"/>
<path d="M26.0182 13.9998C26.0182 17.1714 24.7583 20.213 22.5157 22.4557C20.2731 24.6983 17.2314 25.9582 14.0599 25.9582C10.8883 25.9582 7.8467 24.6983 5.60408 22.4557C3.36145 20.213 2.10156 17.1714 2.10156 13.9998C2.10156 10.8283 3.36145 7.78664 5.60408 5.54402C7.8467 3.3014 10.8883 2.0415 14.0599 2.0415C14.292 2.0415 14.5145 2.13369 14.6786 2.29779C14.8427 2.46188 14.9349 2.68444 14.9349 2.9165V7.34984C14.9319 7.58096 14.8387 7.80177 14.6753 7.96521C14.5118 8.12866 14.291 8.22182 14.0599 8.22484C12.9173 8.21697 11.799 8.5545 10.8516 9.19317C9.89878 9.82463 9.15575 10.7257 8.7173 11.7813C8.27885 12.8369 8.16486 13.9992 8.3899 15.1198C8.75586 16.4493 9.58099 17.6062 10.7189 18.3852C11.8567 19.1641 13.2338 19.5148 14.6056 19.375C15.9775 19.2351 17.2554 18.6138 18.2127 17.6213C19.17 16.6287 19.7447 15.3292 19.8349 13.9532C19.8333 13.8378 19.8549 13.7233 19.8983 13.6165C19.9417 13.5096 20.0061 13.4125 20.0877 13.331C20.1692 13.2494 20.2663 13.185 20.3732 13.1416C20.4801 13.0982 20.5946 13.0766 20.7099 13.0782H25.1432C25.2622 13.078 25.3799 13.1021 25.4892 13.1489C25.5985 13.1958 25.6972 13.2645 25.779 13.3507C25.8609 13.437 25.9244 13.539 25.9655 13.6506C26.0066 13.7622 26.0246 13.8811 26.0182 13.9998Z" fill="#D5D7DA"/>
<path d="M25.5982 7.1518C25.5678 7.37878 25.4749 7.59284 25.3299 7.77013L22.7982 10.3018C22.4382 10.6633 21.9928 10.9281 21.5032 11.0718C21.216 11.16 20.917 11.2033 20.6166 11.2001C20.4109 11.2184 20.2039 11.2184 19.9982 11.2001L18.4466 10.8968L15.7866 13.5685C15.6193 13.7275 15.399 13.819 15.1682 13.8251C14.9362 13.8249 14.7138 13.7326 14.5499 13.5685C14.4673 13.488 14.4017 13.3919 14.3569 13.2857C14.3121 13.1795 14.2891 13.0654 14.2891 12.9501C14.2891 12.8349 14.3121 12.7208 14.3569 12.6146C14.4017 12.5084 14.4673 12.4122 14.5499 12.3318L17.2216 9.64846L16.9066 8.10846C16.8124 7.61208 16.8364 7.10052 16.9766 6.61513C17.1202 6.12558 17.3851 5.68017 17.7466 5.32013L20.2549 2.8118C20.4273 2.65501 20.6426 2.55342 20.8732 2.52013C21.089 2.48886 21.3092 2.52556 21.5032 2.62513C21.6957 2.72305 21.8573 2.87248 21.9699 3.0568C22.0838 3.26304 22.1326 3.49894 22.1099 3.73346L21.7366 6.37013L24.3616 6.00846C24.5813 5.9869 24.8024 6.03215 24.996 6.13831C25.1896 6.24447 25.3466 6.40659 25.4466 6.60346C25.5416 6.77092 25.5937 6.9593 25.5982 7.1518Z" fill="#D5D7DA"/>
</svg>
