<svg width="26" height="26" viewBox="0 0 26 26" fill="none" xmlns="http://www.w3.org/2000/svg">
<path d="M4.0625 7.58447H21.9375C22.3862 7.58447 22.75 7.94824 22.75 8.39697C22.75 8.8457 22.3862 9.20947 21.9375 9.20947H4.0625C3.61377 9.20947 3.25 8.8457 3.25 8.39697C3.25 7.94824 3.61377 7.58447 4.0625 7.58447Z" fill="black"/>
<path d="M7.3125 12.1885H21.9375C22.3862 12.1885 22.75 12.5522 22.75 13.001C22.75 13.4497 22.3862 13.8135 21.9375 13.8135H7.3125C6.86377 13.8135 6.5 13.4497 6.5 13.001C6.5 12.5522 6.86377 12.1885 7.3125 12.1885Z" fill="black"/>
<path d="M4.0625 16.7905H21.9375C22.3862 16.7905 22.75 17.1543 22.75 17.603C22.75 18.0518 22.3862 18.4155 21.9375 18.4155H4.0625C3.61377 18.4155 3.25 18.0518 3.25 17.603C3.25 17.1543 3.61377 16.7905 4.0625 16.7905Z" fill="black"/>
</svg>
