<svg width="17" height="13" viewBox="0 0 17 13" fill="none" xmlns="http://www.w3.org/2000/svg">
<path d="M1.68945 5.58868C1.21797 5.58868 0.835753 5.9709 0.835753 6.44238C0.835753 6.91387 1.21797 7.29608 1.68945 7.29608V5.58868ZM15.9523 7.04604C16.2857 6.71265 16.2857 6.17212 15.9523 5.83873L10.5194 0.405812C10.186 0.0724216 9.64547 0.0724216 9.31208 0.405812C8.97869 0.739203 8.97869 1.27974 9.31208 1.61313L14.1413 6.44238L9.31208 11.2716C8.97869 11.605 8.97869 12.1456 9.31208 12.479C9.64547 12.8123 10.186 12.8123 10.5194 12.479L15.9523 7.04604ZM1.68945 6.44238V7.29608H15.3487V6.44238V5.58868H1.68945V6.44238Z" fill="black"/>
</svg>
