<svg width="20" height="19" viewBox="0 0 20 19" fill="none" xmlns="http://www.w3.org/2000/svg">
<g clip-path="url(#clip0_3162_3589)">
<path d="M18.795 17.3203L14.3656 12.7136C15.5045 11.3598 16.1285 9.65638 16.1285 7.88309C16.1285 3.73996 12.7577 0.369141 8.61454 0.369141C4.47141 0.369141 1.10059 3.73996 1.10059 7.88309C1.10059 12.0262 4.47141 15.397 8.61454 15.397C10.1699 15.397 11.6521 14.9279 12.9194 14.0373L17.3823 18.679C17.5689 18.8727 17.8198 18.9796 18.0886 18.9796C18.3431 18.9796 18.5846 18.8825 18.7678 18.7061C19.1573 18.3314 19.1697 17.71 18.795 17.3203ZM8.61454 2.3293C11.677 2.3293 14.1683 4.82067 14.1683 7.88309C14.1683 10.9455 11.677 13.4369 8.61454 13.4369C5.55211 13.4369 3.06075 10.9455 3.06075 7.88309C3.06075 4.82067 5.55211 2.3293 8.61454 2.3293Z" fill="#4B5660"/>
</g>
<defs>
<clipPath id="clip0_3162_3589">
<rect width="18.6104" height="18.6104" fill="white" transform="translate(0.779297 0.369141)"/>
</clipPath>
</defs>
</svg>
