<svg width="29" height="28" viewBox="0 0 29 28" fill="none" xmlns="http://www.w3.org/2000/svg">
<path d="M3.61071 2.65984C3.72102 2.62727 3.83667 2.61677 3.95104 2.62893C4.06541 2.6411 4.17627 2.67569 4.27725 2.73074C4.37824 2.78578 4.46739 2.8602 4.53959 2.94973C4.6118 3.03926 4.66564 3.14215 4.69805 3.25251L5.33971 5.42484H22.4372C24.5839 5.42484 26.223 7.42801 25.6047 9.51984L23.6739 16.0532C23.2632 17.4462 21.9577 18.3748 20.5064 18.3748H9.82438C8.37305 18.3748 7.06871 17.4462 6.65688 16.0532L3.02038 3.74834C2.95451 3.52587 2.9797 3.28634 3.0904 3.08244C3.2011 2.87853 3.38826 2.72578 3.61071 2.65984ZM7.65088 22.7498C7.65088 22.0536 7.92744 21.386 8.41972 20.8937C8.91201 20.4014 9.57969 20.1248 10.2759 20.1248C10.9721 20.1248 11.6398 20.4014 12.132 20.8937C12.6243 21.386 12.9009 22.0536 12.9009 22.7498C12.9009 23.446 12.6243 24.1137 12.132 24.606C11.6398 25.0983 10.9721 25.3748 10.2759 25.3748C9.57969 25.3748 8.91201 25.0983 8.41972 24.606C7.92744 24.1137 7.65088 23.446 7.65088 22.7498ZM16.9842 22.7498C16.9842 22.4051 17.0521 22.0638 17.184 21.7453C17.3159 21.4268 17.5093 21.1374 17.7531 20.8937C17.9968 20.6499 18.2862 20.4566 18.6047 20.3247C18.9231 20.1927 19.2645 20.1248 19.6092 20.1248C19.9539 20.1248 20.2953 20.1927 20.6138 20.3247C20.9322 20.4566 21.2216 20.6499 21.4654 20.8937C21.7091 21.1374 21.9025 21.4268 22.0344 21.7453C22.1663 22.0638 22.2342 22.4051 22.2342 22.7498C22.2342 23.446 21.9577 24.1137 21.4654 24.606C20.9731 25.0983 20.3054 25.3748 19.6092 25.3748C18.913 25.3748 18.2453 25.0983 17.7531 24.606C17.2608 24.1137 16.9842 23.446 16.9842 22.7498Z" fill="#D5D7DA"/>
</svg>
