<svg width="9" height="11" viewBox="0 0 9 11" fill="none" xmlns="http://www.w3.org/2000/svg">
<path d="M2.64898 0.610165H6.61045C6.58501 0.248115 6.38053 0.0605469 5.98868 0.0605469H3.27512C2.88326 0.0605469 2.67443 0.248115 2.64898 0.610165ZM1.89489 1.7901H7.33473C7.27076 1.40242 7.08755 1.18941 6.6617 1.18941H2.56792C2.14208 1.18941 1.95887 1.40242 1.89489 1.7901ZM2.24004 10.0158H7.24095C8.00794 10.0158 8.45087 9.57273 8.45087 8.69523V3.78792C8.45087 2.91042 8.00358 2.46749 7.11318 2.46749H2.24004C1.354 2.46749 0.902344 2.91042 0.902344 3.78792V8.69523C0.902344 9.57709 1.354 10.0158 2.24004 10.0158Z" fill="#F6F4F1"/>
</svg>
