<svg width="335" height="29" viewBox="0 0 335 29" fill="none" xmlns="http://www.w3.org/2000/svg">
<rect x="17.5" y="12" width="4" height="5" rx="2" fill="#D9D9D9"/>
<rect x="25.5" y="8.5" width="4" height="12" rx="2" fill="#D9D9D9"/>
<rect x="33.5" y="6" width="4" height="17" rx="2" fill="#D9D9D9"/>
<rect x="41.5" width="4" height="29" rx="2" fill="#D9D9D9"/>
<rect x="49.5" width="4" height="29" rx="2" fill="#D9D9D9"/>
<rect x="57.5" y="4" width="4" height="21" rx="2" fill="#D9D9D9"/>
<rect x="65.5" y="4" width="4" height="21" rx="2" fill="#D9D9D9"/>
<rect x="73.5" y="11" width="4" height="7" rx="2" fill="#D9D9D9"/>
<rect x="81.5" y="11" width="4" height="7" rx="2" fill="#D9D9D9"/>
<rect x="89.5" y="5" width="4" height="19" rx="2" fill="#D9D9D9"/>
<rect x="97.5" y="5" width="4" height="19" rx="2" fill="#D9D9D9"/>
<rect x="105.5" width="4" height="29" rx="2" fill="#D9D9D9"/>
<rect x="113.5" y="2" width="4" height="25" rx="2" fill="#D9D9D9"/>
<rect x="121.5" y="4" width="4" height="21" rx="2" fill="#D9D9D9"/>
<rect x="129.5" width="4" height="29" rx="2" fill="#D9D9D9"/>
<rect x="137.5" width="4" height="29" rx="2" fill="#D9D9D9"/>
<rect x="145.5" y="4" width="4" height="21" rx="2" fill="#D9D9D9"/>
<rect x="153.5" y="8" width="4" height="13" rx="2" fill="#D9D9D9"/>
<rect x="161.5" y="11" width="4" height="7" rx="2" fill="#D9D9D9"/>
<rect x="169.5" y="12" width="4" height="5" rx="2" fill="#D9D9D9"/>
<rect x="177.5" y="8.5" width="4" height="12" rx="2" fill="#D9D9D9"/>
<rect x="185.5" y="6" width="4" height="17" rx="2" fill="#D9D9D9"/>
<rect x="193.5" width="4" height="29" rx="2" fill="#D9D9D9"/>
<rect x="201.5" width="4" height="29" rx="2" fill="#D9D9D9"/>
<rect x="209.5" y="4" width="4" height="21" rx="2" fill="#D9D9D9"/>
<rect x="217.5" y="4" width="4" height="21" rx="2" fill="#D9D9D9"/>
<rect x="225.5" y="11" width="4" height="7" rx="2" fill="#D9D9D9"/>
<rect x="233.5" y="11" width="4" height="7" rx="2" fill="#D9D9D9"/>
<rect x="241.5" y="5" width="4" height="19" rx="2" fill="#D9D9D9"/>
<rect x="249.5" y="5" width="4" height="19" rx="2" fill="#D9D9D9"/>
<rect x="257.5" width="4" height="29" rx="2" fill="#D9D9D9"/>
<rect x="265.5" y="2" width="4" height="25" rx="2" fill="#D9D9D9"/>
<rect x="273.5" y="4" width="4" height="21" rx="2" fill="#D9D9D9"/>
<rect x="281.5" width="4" height="29" rx="2" fill="#D9D9D9"/>
<rect x="289.5" width="4" height="29" rx="2" fill="#D9D9D9"/>
<rect x="297.5" y="4" width="4" height="21" rx="2" fill="#D9D9D9"/>
<rect x="305.5" y="8" width="4" height="13" rx="2" fill="#D9D9D9"/>
<rect x="313.5" y="11" width="4" height="7" rx="2" fill="#D9D9D9"/>
</svg>
