<svg width="25" height="25" viewBox="0 0 25 25" fill="none" xmlns="http://www.w3.org/2000/svg">
<path d="M10.4658 5.65918C10.4658 5.12875 10.6765 4.62004 11.0516 4.24497C11.4267 3.86989 11.9354 3.65918 12.4658 3.65918C12.9963 3.65918 13.505 3.86989 13.88 4.24497C14.2551 4.62004 14.4658 5.12875 14.4658 5.65918C15.6142 6.20221 16.5932 7.04751 17.2979 8.10448C18.0025 9.16145 18.4063 10.3903 18.4658 11.6592V14.6592C18.5411 15.2809 18.7613 15.8762 19.1086 16.3973C19.456 16.9184 19.9209 17.3506 20.4658 17.6592H4.46582C5.01076 17.3506 5.47563 16.9184 5.82301 16.3973C6.17039 15.8762 6.39057 15.2809 6.46582 14.6592V11.6592C6.52538 10.3903 6.92912 9.16145 7.63377 8.10448C8.33842 7.04751 9.31741 6.20221 10.4658 5.65918" stroke="#04091E" stroke-width="1.5" stroke-linecap="round" stroke-linejoin="round"/>
<path d="M9.46582 17.6592V18.6592C9.46582 19.4548 9.78189 20.2179 10.3445 20.7805C10.9071 21.3431 11.6702 21.6592 12.4658 21.6592C13.2615 21.6592 14.0245 21.3431 14.5871 20.7805C15.1498 20.2179 15.4658 19.4548 15.4658 18.6592V17.6592" stroke="#04091E" stroke-width="1.5" stroke-linecap="round" stroke-linejoin="round"/>
<circle cx="18.4658" cy="5.65918" r="3.5" fill="#7F7ED8" stroke="white"/>
</svg>
