<svg width="19" height="17" viewBox="0 0 19 17" fill="none" xmlns="http://www.w3.org/2000/svg">
<path d="M0.941449 14.6191H3.57816V16.2011C3.57816 16.4924 3.81427 16.7285 4.10551 16.7285H17.8867C18.178 16.7285 18.4141 16.4924 18.4141 16.2011V2.49023C18.4141 2.199 18.178 1.96289 17.8867 1.96289H15.25V1.43555C15.25 1.14431 15.0139 0.908203 14.7227 0.908203C14.4314 0.908203 14.1953 1.14431 14.1953 1.43555V1.96289H11.5235V1.43555C11.5235 1.14431 11.2874 0.908203 10.9961 0.908203C10.7049 0.908203 10.4688 1.14431 10.4688 1.43555V1.96289H7.83206V1.43555C7.83206 1.14431 7.59595 0.908203 7.30472 0.908203C7.01348 0.908203 6.77738 1.14431 6.77738 1.43555V1.96289H4.10551C3.81427 1.96289 3.57816 2.199 3.57816 2.49023V5.65429C3.57816 9.5408 1.96291 12.5307 0.603844 13.6867C0.433267 13.8288 0.370021 14.0625 0.445571 14.2713C0.521192 14.4801 0.719403 14.6191 0.941449 14.6191ZM17.3594 15.6738H4.63285V14.6191H14.7227C14.846 14.6191 14.9655 14.5759 15.0603 14.4969C15.6942 13.9689 16.6762 12.7118 17.3594 11.1017V15.6738ZM4.63285 3.01757H6.77738V3.54492C6.77738 3.83615 7.01348 4.07226 7.30472 4.07226C7.59595 4.07226 7.83206 3.83615 7.83206 3.54492V3.01757H10.4688V3.54492C10.4688 3.83615 10.7049 4.07226 10.9961 4.07226C11.2874 4.07226 11.5235 3.83615 11.5235 3.54492V3.01757H14.1953V3.54492C14.1953 3.83615 14.4314 4.07226 14.7227 4.07226C15.0139 4.07226 15.25 3.83615 15.25 3.54492V3.01757H17.3594V5.12694H4.63285V3.01757ZM4.62381 6.18128H17.35C17.2312 9.52656 15.9473 12.1586 14.5159 13.5644H2.14094C3.7628 11.4979 4.5368 8.80716 4.62381 6.18128Z" fill="#4B5660"/>
</svg>
