<svg width="16" height="13" viewBox="0 0 16 13" fill="none" xmlns="http://www.w3.org/2000/svg">
<path d="M2.15005 12.2658C1.75644 12.2658 1.41949 12.1257 1.13919 11.8454C0.858898 11.5651 0.71875 11.2281 0.71875 10.8345V2.24673C0.71875 1.85312 0.858898 1.51617 1.13919 1.23587C1.41949 0.955578 1.75644 0.81543 2.15005 0.81543H6.44394L7.87524 2.24673H13.6004C13.994 2.24673 14.331 2.38688 14.6113 2.66717C14.8916 2.94747 15.0317 3.28442 15.0317 3.67803V10.8345C15.0317 11.2281 14.8916 11.5651 14.6113 11.8454C14.331 12.1257 13.994 12.2658 13.6004 12.2658H2.15005ZM2.15005 10.8345H13.6004V3.67803H7.28483L5.85353 2.24673H2.15005V10.8345Z" fill="black"/>
</svg>
