<svg width="22" height="19" viewBox="0 0 22 19" fill="none" xmlns="http://www.w3.org/2000/svg">
<g clip-path="url(#clip0_3162_37)">
<path d="M4.58301 9.5C4.58301 10.8924 5.25905 12.2277 6.46241 13.2123C7.66576 14.1969 9.29787 14.75 10.9997 14.75M10.9997 14.75C12.7015 14.75 14.3336 14.1969 15.5369 13.2123C16.7403 12.2277 17.4163 10.8924 17.4163 9.5M10.9997 14.75V17.75M7.33301 17.75H14.6663M8.24967 9.5C8.24967 10.0967 8.53941 10.669 9.05513 11.091C9.57086 11.5129 10.2703 11.75 10.9997 11.75C11.729 11.75 12.4285 11.5129 12.9442 11.091C13.4599 10.669 13.7497 10.0967 13.7497 9.5V3.5C13.7497 2.90326 13.4599 2.33097 12.9442 1.90901C12.4285 1.48705 11.729 1.25 10.9997 1.25C10.2703 1.25 9.57086 1.48705 9.05513 1.90901C8.53941 2.33097 8.24967 2.90326 8.24967 3.5V9.5Z" stroke="#4B5660" stroke-width="1.83333" stroke-linecap="round" stroke-linejoin="round"/>
</g>
<defs>
<clipPath id="clip0_3162_37">
<rect width="22" height="18" fill="white" transform="translate(0 0.5)"/>
</clipPath>
</defs>
</svg>
