<svg width="29" height="28" viewBox="0 0 29 28" fill="none" xmlns="http://www.w3.org/2000/svg">
<path d="M14.5 2.625C11.4832 2.625 8.58989 3.82343 6.45666 5.95666C4.32343 8.08989 3.125 10.9832 3.125 14C3.125 15.8177 3.552 17.5385 4.31267 19.0657C4.434 19.3107 4.44567 19.6758 4.30683 20.244C4.23331 20.531 4.14768 20.8147 4.05017 21.0945L4.01517 21.1948C3.92883 21.4515 3.8355 21.7315 3.7655 21.9917C3.31983 23.6565 4.8435 25.1802 6.50717 24.7345C6.7685 24.6645 7.04733 24.5712 7.30517 24.4848L7.4055 24.4498C7.68525 24.3523 7.96901 24.2667 8.256 24.1932C8.82417 24.0532 9.18933 24.0648 9.43433 24.1873C11.0077 24.9713 12.7421 25.3779 14.5 25.375C20.7825 25.375 25.875 20.2825 25.875 14C25.875 7.7175 20.7825 2.625 14.5 2.625Z" fill="#D5D7DA"/>
</svg>
