<svg width="25" height="25" viewBox="0 0 25 25" fill="none" xmlns="http://www.w3.org/2000/svg">
<path d="M6.40762 17.7592C7.25762 17.1092 8.20762 16.5967 9.25762 16.2217C10.3076 15.8467 11.4076 15.6592 12.5576 15.6592C13.7076 15.6592 14.8076 15.8467 15.8576 16.2217C16.9076 16.5967 17.8576 17.1092 18.7076 17.7592C19.2909 17.0758 19.7451 16.3008 20.0701 15.4342C20.3951 14.5675 20.5576 13.6425 20.5576 12.6592C20.5576 10.4425 19.7784 8.55501 18.2201 6.99668C16.6618 5.43835 14.7743 4.65918 12.5576 4.65918C10.3409 4.65918 8.45345 5.43835 6.89512 6.99668C5.33678 8.55501 4.55762 10.4425 4.55762 12.6592C4.55762 13.6425 4.72012 14.5675 5.04512 15.4342C5.37012 16.3008 5.82428 17.0758 6.40762 17.7592ZM12.5576 13.6592C11.5743 13.6592 10.7451 13.3217 10.0701 12.6467C9.39512 11.9717 9.05762 11.1425 9.05762 10.1592C9.05762 9.17585 9.39512 8.34668 10.0701 7.67168C10.7451 6.99668 11.5743 6.65918 12.5576 6.65918C13.5409 6.65918 14.3701 6.99668 15.0451 7.67168C15.7201 8.34668 16.0576 9.17585 16.0576 10.1592C16.0576 11.1425 15.7201 11.9717 15.0451 12.6467C14.3701 13.3217 13.5409 13.6592 12.5576 13.6592ZM12.5576 22.6592C11.1743 22.6592 9.87428 22.3967 8.65762 21.8717C7.44095 21.3467 6.38262 20.6342 5.48262 19.7342C4.58262 18.8342 3.87012 17.7758 3.34512 16.5592C2.82012 15.3425 2.55762 14.0425 2.55762 12.6592C2.55762 11.2758 2.82012 9.97585 3.34512 8.75918C3.87012 7.54251 4.58262 6.48418 5.48262 5.58418C6.38262 4.68418 7.44095 3.97168 8.65762 3.44668C9.87428 2.92168 11.1743 2.65918 12.5576 2.65918C13.9409 2.65918 15.2409 2.92168 16.4576 3.44668C17.6743 3.97168 18.7326 4.68418 19.6326 5.58418C20.5326 6.48418 21.2451 7.54251 21.7701 8.75918C22.2951 9.97585 22.5576 11.2758 22.5576 12.6592C22.5576 14.0425 22.2951 15.3425 21.7701 16.5592C21.2451 17.7758 20.5326 18.8342 19.6326 19.7342C18.7326 20.6342 17.6743 21.3467 16.4576 21.8717C15.2409 22.3967 13.9409 22.6592 12.5576 22.6592Z" fill="#1D1B20"/>
</svg>
