<svg width="29" height="28" viewBox="0 0 29 28" fill="none" xmlns="http://www.w3.org/2000/svg">
<path d="M10.2627 4.0835C10.2627 3.61937 10.4471 3.17425 10.7753 2.84606C11.1034 2.51787 11.5486 2.3335 12.0127 2.3335H17.846C18.3102 2.3335 18.7553 2.51787 19.0835 2.84606C19.4117 3.17425 19.596 3.61937 19.596 4.0835V5.25016C19.596 5.71429 19.4117 6.15941 19.0835 6.4876C18.7553 6.81579 18.3102 7.00016 17.846 7.00016H12.0127C11.5486 7.00016 11.1034 6.81579 10.7753 6.4876C10.4471 6.15941 10.2627 5.71429 10.2627 5.25016V4.0835Z" fill="#D5D7DA"/>
<path fill-rule="evenodd" clip-rule="evenodd" d="M8.51302 4.70996C7.04535 4.79163 6.11902 5.02496 5.45519 5.68996C4.42969 6.71546 4.42969 8.36513 4.42969 11.6645V18.6645C4.42969 21.965 4.42969 23.6146 5.45519 24.6401C6.47952 25.6645 8.13035 25.6645 11.4297 25.6645H18.4297C21.729 25.6645 23.3799 25.6645 24.4042 24.6401C25.4297 23.6135 25.4297 21.965 25.4297 18.6645V11.6645C25.4297 8.36513 25.4297 6.71546 24.4042 5.68996C23.7404 5.02496 22.814 4.79163 21.3464 4.70996V5.25013C21.3464 6.17838 20.9776 7.06862 20.3212 7.725C19.6649 8.38138 18.7746 8.75013 17.8464 8.75013H12.013C11.0848 8.75013 10.1945 8.38138 9.53815 7.725C8.88177 7.06862 8.51302 6.17838 8.51302 5.25013V4.70996ZM8.22135 12.2501C8.22135 12.0181 8.31354 11.7955 8.47764 11.6314C8.64173 11.4673 8.86429 11.3751 9.09635 11.3751H20.763C20.9951 11.3751 21.2176 11.4673 21.3817 11.6314C21.5458 11.7955 21.638 12.0181 21.638 12.2501C21.638 12.4822 21.5458 12.7048 21.3817 12.8688C21.2176 13.0329 20.9951 13.1251 20.763 13.1251H9.09635C8.86429 13.1251 8.64173 13.0329 8.47764 12.8688C8.31354 12.7048 8.22135 12.4822 8.22135 12.2501ZM9.38802 16.3335C9.38802 16.1014 9.48021 15.8788 9.6443 15.7147C9.8084 15.5506 10.031 15.4585 10.263 15.4585H19.5964C19.8284 15.4585 20.051 15.5506 20.2151 15.7147C20.3792 15.8788 20.4714 16.1014 20.4714 16.3335C20.4714 16.5655 20.3792 16.7881 20.2151 16.9522C20.051 17.1163 19.8284 17.2085 19.5964 17.2085H10.263C10.031 17.2085 9.8084 17.1163 9.6443 16.9522C9.48021 16.7881 9.38802 16.5655 9.38802 16.3335ZM10.5547 20.4168C10.5547 20.1847 10.6469 19.9622 10.811 19.7981C10.9751 19.634 11.1976 19.5418 11.4297 19.5418H18.4297C18.6618 19.5418 18.8843 19.634 19.0484 19.7981C19.2125 19.9622 19.3047 20.1847 19.3047 20.4168C19.3047 20.6489 19.2125 20.8714 19.0484 21.0355C18.8843 21.1996 18.6618 21.2918 18.4297 21.2918H11.4297C11.1976 21.2918 10.9751 21.1996 10.811 21.0355C10.6469 20.8714 10.5547 20.6489 10.5547 20.4168Z" fill="#D5D7DA"/>
</svg>
