<svg width="12" height="20" viewBox="0 0 12 20" fill="none" xmlns="http://www.w3.org/2000/svg">
<path d="M3.35947 11.2916C3.28097 11.2916 1.63422 11.2921 0.874723 11.2914C0.483723 11.2911 0.344223 11.1506 0.344223 10.7571C0.343723 9.7464 0.343473 8.73565 0.344223 7.7249C0.344473 7.3364 0.491973 7.18815 0.877973 7.1879C1.63747 7.1874 3.27522 7.18765 3.35947 7.18765C3.35947 7.1184 3.35922 5.65915 3.35947 4.98715C3.35997 3.99365 3.53722 3.04265 4.04197 2.1719C4.55872 1.28065 5.31072 0.670154 6.27447 0.317154C6.89172 0.0909041 7.53247 0.000654262 8.18747 0.000154262C9.00697 -0.000345738 9.82647 0.000404254 10.6462 0.00190425C10.9985 0.00240425 11.1547 0.158154 11.1555 0.512904C11.157 1.46365 11.157 2.4144 11.1555 3.3649C11.155 3.7234 11.0052 3.8674 10.645 3.8714C9.97322 3.87865 9.30097 3.87415 8.62997 3.90115C7.95222 3.90115 7.59572 4.23215 7.59572 4.93365C7.57947 5.67565 7.58897 6.4184 7.58897 7.1874C7.65247 7.1874 9.58122 7.18715 10.4827 7.1874C10.8922 7.1874 11.0322 7.32815 11.0322 7.7399C11.0322 8.74515 11.032 9.75065 11.0312 10.7559C11.031 11.1616 10.8995 11.2911 10.4875 11.2914C9.58597 11.2919 7.66472 11.2916 7.58072 11.2916V19.4279C7.58072 19.8616 7.44422 19.9999 7.01622 19.9999C5.97272 19.9999 4.92897 20.0001 3.88547 19.9999C3.50722 19.9999 3.35972 19.8529 3.35972 19.4746C3.35947 16.8249 3.35947 11.3846 3.35947 11.2916Z" fill="black"/>
</svg>
