<svg width="139" height="68" viewBox="0 0 139 68" fill="none" xmlns="http://www.w3.org/2000/svg">
<path d="M0.375 18.1315C0.375 11.8502 0.375 8.7095 1.59743 6.31035C2.67271 4.2 4.38847 2.48423 6.49883 1.40895C8.89797 0.186523 12.0386 0.186523 18.32 0.186523H120.789C127.07 0.186523 130.211 0.186523 132.61 1.40895C134.72 2.48423 136.436 4.2 137.511 6.31035C138.734 8.7095 138.734 11.8502 138.734 18.1315V49.3535C138.734 55.6349 138.734 58.7755 137.511 61.1747C136.436 63.285 134.72 65.0008 132.61 66.0761C130.211 67.2985 127.07 67.2985 120.789 67.2985H18.3199C12.0386 67.2985 8.89797 67.2985 6.49883 66.0761C4.38847 65.0008 2.67271 63.285 1.59743 61.1747C0.375 58.7755 0.375 55.6349 0.375 49.3535V18.1315Z" fill="url(#paint0_linear_3292_41986)" fill-opacity="0.2"/>
<defs>
<linearGradient id="paint0_linear_3292_41986" x1="74.4246" y1="67.2985" x2="76.9298" y2="11.1193" gradientUnits="userSpaceOnUse">
<stop offset="0.115385"/>
<stop offset="1" stop-opacity="0"/>
</linearGradient>
</defs>
</svg>
