<svg width="375" height="813" viewBox="0 0 375 813" fill="none" xmlns="http://www.w3.org/2000/svg">
<g clip-path="url(#clip0_2199_34266)">
<path d="M-167 1155.08C-167 961.186 -9.81418 804 184.084 804C377.983 804 535.168 961.186 535.168 1155.08V1171H-167V1155.08Z" fill="url(#paint0_linear_2199_34266)" fill-opacity="0.5"/>
<path d="M-156 1074.08C-156 885.155 -2.8446 732 186.082 732C384.952 732 546.168 893.216 546.168 1092.09V1099H-156V1074.08Z" fill="url(#paint1_linear_2199_34266)" fill-opacity="0.5"/>
<path d="M-163 1124C-163 922.346 0.473251 757 202.128 757C388.27 757 539.168 907.898 539.168 1094.04V1124H-163Z" fill="url(#paint2_linear_2199_34266)" fill-opacity="0.5"/>
<path d="M-164 1099C-164 896.312 0.311584 732 203 732H219.001C395.272 732 538.168 874.896 538.168 1051.17V1099H-164Z" fill="url(#paint3_linear_2199_34266)" fill-opacity="0.5"/>
</g>
<defs>
<linearGradient id="paint0_linear_2199_34266" x1="-167" y1="1171" x2="255.332" y2="588.286" gradientUnits="userSpaceOnUse">
<stop stop-color="#7F7ED8"/>
<stop offset="1" stop-color="#E2A19B"/>
</linearGradient>
<linearGradient id="paint1_linear_2199_34266" x1="-156" y1="1099" x2="266.332" y2="516.286" gradientUnits="userSpaceOnUse">
<stop stop-color="#7F7ED8"/>
<stop offset="1" stop-color="#E2A19B"/>
</linearGradient>
<linearGradient id="paint2_linear_2199_34266" x1="-163" y1="1124" x2="259.332" y2="541.286" gradientUnits="userSpaceOnUse">
<stop stop-color="#7F7ED8"/>
<stop offset="1" stop-color="#E2A19B"/>
</linearGradient>
<linearGradient id="paint3_linear_2199_34266" x1="-164" y1="1099" x2="258.332" y2="516.286" gradientUnits="userSpaceOnUse">
<stop stop-color="#7F7ED8"/>
<stop offset="1" stop-color="#E2A19B"/>
</linearGradient>
<clipPath id="clip0_2199_34266">
<rect width="375" height="813" fill="white"/>
</clipPath>
</defs>
</svg>
